<svg version="1.2" xmlns="http://www.w3.org/2000/svg" viewBox="0 0 1550 1444" width="1550" height="1444"><style>.a{fill:#148355}</style><path fill-rule="evenodd" class="a" d="m771.9 0.8c17.8-0.4 52.5 3.8 77.2 8.9 24.7 5.4 64.9 19.3 89.6 30.8 28.6 13.6 61.4 36.7 89.9 63.4 24.8 23.1 56 60.6 69.2 83 13.5 22.4 30.1 59.8 37.4 82.6 9.7 30.1 13.5 59.8 13.5 105.8 0.4 41.7-3.1 77.2-10 101.1-6.6 22.8-13.5 36.3-18.6 34.8-4.6-1.2-50.5-17.8-197.6-71.4l4.2-38.6c2.3-25.1 0.8-48.7-5-67.2-4.6-15.5-20.1-41.3-34.4-57.2-13.9-15.8-37-33.9-51.3-40.1-13.9-6.6-39.8-12-57.5-12-17.8 0-43.3 3.9-57.2 8.1-13.9 4.3-37.8 19.3-53.6 33.6-18.9 17.4-32.5 37.1-41 61-8.8 23.9-11.9 44.4-10 64.1 1.9 15.8 8.9 40.5 15.8 54.4 7 14.3 21.3 35.6 31.3 47.5 10 12.4 38.6 35.6 63.3 52.2 24.7 16.6 62.2 38.9 83.4 49.4 21.3 10.8 61.8 27.4 90 37 28.2 9.7 77.2 22.8 108.8 29.4 31.7 6.5 91.2 15 131.7 18.9 40.5 3.9 91.9 11.6 113.9 16.6 22 5 57.9 17.8 79.9 29 22.4 10.8 54.8 30.5 72.2 44 17.8 13.5 44 40.1 58.7 59 14.6 19 34 48.7 42.8 66.5 8.9 17.7 20.5 47.8 25.9 67.1 5.4 19.7 12 51.4 14.3 70.7 2.3 19.3 0.4 58.3-3.9 86.9-4.2 28.2-13.1 65.6-20.1 83.4-7.3 17.3-25 50.5-40.5 73.7-15 22.8-41.3 54.1-58.7 69.5-17 15.4-44.4 35.5-60.2 44.8-15.8 9.3-47.5 23.9-70.3 32-28.1 10.5-61.7 16.3-102.7 18.6-43.6 2.3-73.3 0.4-104.2-7-23.9-5.8-64.5-20.8-90-34-25.4-12.7-62.9-38.6-120.4-91.8l83.8-70.7c45.5-38.6 85.3-70.7 88-70.7 2.7-0.3 10.4 5.8 17.8 13.6 6.9 7.7 25.8 20 41.7 27 17.7 8.1 42.4 13.1 64 13.1 25.5-0.4 44.8-5 68.8-17.4 21.2-10.4 41.3-27.4 53.2-44.4 10.8-14.6 22.8-37 26.7-49.4 3.8-12.7 5.4-39.4 3.1-61-2.7-26.2-9.7-47.9-21.7-67.2-10.4-16.6-31.2-36.7-49.4-48.2-28.9-17.8-36.3-19.3-87.6-19.3-54.8 0-56.8 0.3-128.6 36.6-40.1 20.1-91.9 50.6-114.6 68-23.2 17.4-63.4 54.4-90 82.6-26.2 28.2-72.6 85.7-102.3 127.8-29.7 41.7-69.1 90.7-87.6 108.5-18.2 17.4-48.7 41.3-67.6 52.9-18.9 11.2-51.7 26.6-73 34.4-26.2 9.6-59 15-105.7 17-50.2 2.3-77.6 0.3-108.9-7.8-23.2-5.8-60.6-20-83.4-31.2-28.2-13.6-57.9-36.3-90-68.8-28.1-27.8-56.7-64.1-68.3-86.5-11.2-21.2-24.7-54.4-30.5-73.7-5.8-19.3-12-57.1-13.9-83.4-2.7-32.4-0.8-63.7 6.2-96.5 5.4-26.3 21.6-71.1 35.5-99.2 17.4-35.2 37.4-63.7 64.1-90 21.2-21.2 56.7-49.4 79.1-62.9 22-13.2 58.7-29.8 81.9-36.7 22.8-7 43.2-10.8 44.8-8.9 1.9 2.3 10.8 50.6 20.4 107.7 9.3 56.8 15.1 105.4 12.8 107.7-2.4 2-14.3 7-26.7 10.9-12.3 3.8-35.9 20.8-52.1 37.4-17.4 18.2-32.4 41.7-36.7 56.8-4.2 13.9-7.3 37-7.3 51.3 0 13.9 3.5 37.1 7.7 51.4 4.6 14.3 20.9 38.6 37.1 55.6 22.4 23.1 37.4 32 67.2 40.5 23.9 7 47.8 9.7 62.5 7 13.5-2 35.1-9.3 48.3-15.9 13.1-6.5 33.5-22 45.1-33.6 11.6-11.9 26.7-37 33.6-55.6 7-18.5 15.8-63.3 19.7-99.2 5.4-49 5.4-82.2 0-130.1-4.2-35.1-13.5-87.3-20.8-115.4-7.4-28.2-21.3-71.5-30.9-96.2-10.1-24.7-30.9-71-47.1-102.7-15.9-32-33.6-75.3-39-96.5-5.4-20.9-10.1-64.5-10.4-96.2 0-31.6 4.2-74.9 9.6-96.1 5.4-21.2 19.3-57.1 30.5-79.5 11.6-22.8 36.7-58.7 56-79.9 19.7-21.3 52.9-49.9 74.1-63.4 20.9-13.9 53.7-30.5 72.2-37.4 18.1-7 48.6-15.1 67.2-18.2 18.5-3.4 48.2-6.1 65.6-6.5z"/></svg>