<svg version="1.2" xmlns="http://www.w3.org/2000/svg" viewBox="0 0 1493 243" width="1493" height="243">
	<title>Air_Busan_logo-svg</title>
	<style>
		.s0 { fill: #1e409a } 
	</style>
	<g id="layer1">
		<g id="g7069">
			<g id="g11742">
				<path id="path11744" class="s0" d="m1492.7 82.2c-2.4 4.4-4.3 9.2-7.4 13.1-43 54.5-99.1 85.4-168.3 93-65.5 7.1-128.6-4.6-190.7-23.9-53-16.5-105.5-35.2-160.3-45.1-127.6-23-233.5 16.2-318.3 113.7-2.3 2.7-4.5 5.4-6.8 8.2-0.1 0.1-0.4 0.1-2.2 0.8 25.4-48.6 61.2-85.9 106.3-116.8-5.4-1.3-9.3-2.2-13.3-3.3-30.3-8.1-55.9-25.4-81.6-42.5-20.7-13.9-41.3-28.4-63.5-39.4-27.9-13.9-58.1-17.1-88.6-7.7-3.2 1-6.2 2.4-9.1 3.8-1.5 0.7-2.7 1.8-4.3 2.9 0.9 0.9 1.5 1.7 2.3 2.1 34.4 17.4 55.8 46 69.9 81 12.8 31.9 17.8 65.2 19.5 100.3-1.3-1-2.1-1.3-2.5-1.9-26.1-41.7-65-64.5-111.9-74.9-56-12.5-111.6-7.2-166.3 7.6-26.3 7.2-51.9 17-78.2 24.5-47.2 13.6-95.1 19-143.7 7.4-22.3-5.3-42.8-14.5-60.6-29.2-4.7-3.9-8.5-9-12.7-13.6q0.7-1 1.4-2c2.9 1.4 6 2.6 8.8 4.2 33.4 19.9 69.7 26 108 23.2 44.9-3.3 87-17.7 129.2-32 29.6-10.1 59.3-20 90.6-24.1 59.1-7.8 114.9 2.3 167.1 31.3 13.7 7.6 26.4 17 39.6 25.6-0.1 0.2 0.4-0.3 0.3-0.5-12-31.9-26.7-62.3-50.4-87.5-23.3-24.7-52.2-38.3-85.6-42.2-12.8-1.5-25.8-1.3-38.7-1.9-1.9-0.2-3.8-0.8-5.8-1.2 0.7-2.1 0.8-4.7 2.1-6.2 11.6-12.6 25.5-18.8 43-15.4 9 1.7 18.2 2.8 27.3 4.2 10.2 1.6 19.7 0.2 29.8-2.9 17.2-5.4 34.8-10.3 52.6-12.9 30.9-4.6 60.1 2.8 86.8 18.5 19.3 11.3 37.8 23.9 56.3 36.4 28 18.9 57.3 34.4 91.4 39 20.6 2.7 40.9 1.9 60.8-4.3 83.3-25.7 165.2-21.3 246.4 10 41.3 15.9 82.8 31.2 124.8 45 42.5 13.9 86.3 19.8 131.1 15.6 56.4-5.3 105.5-28.3 149.6-62.9 7.8-6.2 15.5-12.6 23.3-18.9q1.3 0.9 2.5 1.8z"/>
			</g>
		</g>
	</g>
</svg>