<svg version="1.2" xmlns="http://www.w3.org/2000/svg" viewBox="0 0 1549 1273" width="1549" height="1273"><defs><linearGradient id="P" gradientUnits="userSpaceOnUse"/><radialGradient id="g1" cx="0" cy="0" r="1" href="#P" gradientTransform="matrix(667.503,0,0,667.503,817.09,615.869)"><stop stop-color="#fff"/><stop offset=".07" stop-color="#fff"/><stop offset=".38" stop-color="#fdd9e2"/><stop offset="1" stop-color="#ee566c"/></radialGradient><radialGradient id="g2" cx="0" cy="0" r="1" href="#P" gradientTransform="matrix(512.855,0,0,512.855,759.225,90.802)"><stop stop-color="#ee566c"/><stop offset=".21" stop-color="#ee566c"/><stop offset=".87" stop-color="#fdd9e2"/><stop offset="1" stop-color="#fdd9e2"/></radialGradient><radialGradient id="g3" cx="0" cy="0" r="1" href="#P" gradientTransform="matrix(571.552,0,0,571.552,822.77,189.869)"><stop stop-color="#ee566c"/><stop offset=".64" stop-color="#fdd9e2"/><stop offset="1" stop-color="#fff"/></radialGradient><radialGradient id="g4" cx="0" cy="0" r="1" href="#P" gradientTransform="matrix(371.083,0,0,371.083,599.884,812.338)"><stop stop-color="#fff"/><stop offset=".41" stop-color="#fdd9e2"/><stop offset="1" stop-color="#ee566c"/></radialGradient><radialGradient id="g5" cx="0" cy="0" r="1" href="#P" gradientTransform="matrix(471.827,0,0,471.827,601.07,706.039)"><stop stop-color="#fff"/><stop offset=".07" stop-color="#fff"/><stop offset=".43" stop-color="#fdd9e2"/><stop offset="1" stop-color="#ee566c"/></radialGradient><radialGradient id="g6" cx="0" cy="0" r="1" href="#P" gradientTransform="matrix(951.556,0,0,951.556,1725.382,282.913)"><stop stop-color="#ee566c"/><stop offset=".31" stop-color="#ee566c"/><stop offset=".76" stop-color="#fdd9e2"/><stop offset="1" stop-color="#fdd9e2"/></radialGradient><radialGradient id="g7" cx="0" cy="0" r="1" href="#P" gradientTransform="matrix(494.194,0,0,494.194,847.329,727.359)"><stop stop-color="#fff"/><stop offset=".09" stop-color="#fff"/><stop offset=".37" stop-color="#fdd9e2"/><stop offset=".85" stop-color="#ee566c"/><stop offset="1" stop-color="#ee566c"/></radialGradient></defs><style>.a{fill:#be1d2d}.b{fill:#fff}.c{fill:#ee566c}.d{fill:url(#g1)}.e{fill:url(#g2)}.f{fill:url(#g3)}.g{fill:url(#g4)}.h{fill:url(#g5)}.i{fill:url(#g6)}.j{fill:url(#g7)}</style><path class="a" d="m197.3 989.3c16.7 71.4 13.6 189.4-34.2 249-68.9 85-135.3-8.7-152.1-78.9-18.6-75.7-16.1-208 39.8-268.2 19.2-24.2 49.6-39.1 78.2-19.9 43.4 30.5 52.8 68.9 68.3 118z"/><path fill-rule="evenodd" class="b" d="m132.7 1081.8c3.1 8.1-4.3 21.7 9.3 24.2 8.7 7.5 29.8 5 28 18.6-16.8-0.6-29.8-16.1-49.1-11.8-10.5 1.9-19.2 7.5-29.2 10.6-1.2-1.2-3.1-2.5-2.4-5 9.9-7.4 24.8-7.4 33.5-16.7l0.6-24.9c5-5.6 11.2-0.6 9.3 5zm16.2 55.3c9.9 9.3 3.1 21.7 4.3 33.5-0.6 26.1 0.6 47.8 6.8 72.6-0.6 3.8-1.2 7.5-4.9 8.7-3.1 0-3.1-3.1-5-4.9-2.5-33.6-5.6-67.1-6.8-101.2-1.9-9.4-14.9-3.2-20.5-5-3.7 0.6-6.2 2.5-8.7 5-1.9 33.5 0 68.9-6.2 104.3-0.6 1.2-2.5 1.2-4.4 1.2l-1.8-2.5c3.1-34.7 2.5-73.2 5.6-106.2 3.7-5.5 11.8-10.5 19.8-9.9 7.5-0.6 15.5 1.9 21.8 4.4zm-72.7 35.4c-0.6-2.5-5.6-3.2-7.4-3.2-5.6 0-10.6-1.8-16.2 0-1.2 3.2-1.8 8.7-1.8 13.1 0 2.5 3.7 1.8 5.6 1.8 5.5 1.3 4.9 3.8 11.1 4.4 1.9 0.6 6.9 6.2-1.2 8.1-5-0.7-6.2-3.8-12.4-4.4-2.5-0.6-3.8 1.3-4.4 3.1-1.2 12.4-3.1 23.6-5.6 34.8-1.2 2.5-3.1 3.7-4.9 5-3.8-2.5 0-8.7 0-13.1 1.2-3.1 0-7.4 1.2-11.2 0-8 3.7-18 1.9-26 3.1-17.4 3.1-35.4 1.8-52.2 1.3-6.2-4.9-13.6 0.7-18 2.4-1.2 3.7 2.5 5.5 3.7 3.2 4.4-3.1 16.2 5.6 15.6q1.9 0 3.8 0c6.2 0 7.4-5 11.8-0.7 0 0.7 0.6 1.3 1.2 1.9 0 0.6 0 1.9 0 2.5-0.6 0.6-0.6 0.6-1.2 1.2-6.3 3.1-11.8 2.5-19.3 5.6 0 4.4-0.6 9.9 1.3 14.3 3.1 2.5 6.8 1.2 10.5 3.1 3.7-0.6 10.6 1.9 12.4-2.5 0-5 1.9-10.5 0-14.9 0.6-3.1 0.6-5.6 0-8.7 0-2.5-0.6-10.5-0.6-14.3-3.1-8-13-8-20.5-10.5-5.6-0.6-8.1-2.5-9.9-4.4-3.1-3.7-6.2-8-4.4-13.6 1.3-12.4 16.2-11.8 23.6-14.9 6.9 0 12.4-8.1 17.4-0.6 0 2.4-0.6 4.3-3.1 4.9-3.1 0.6-5.6 1.3-9.3 2.5-1.9 0.6-3.1 0.6-5 1.3-6.2 0.6-13.6 3.1-16.1 8.6 0.6 3.1 1.2 6.9 4.3 8.7 11.2 3.1 25.5 3.8 30.4 16.8 1.3 13 3.8 27.9 1.3 40.4-0.6 3.1 0 4.9-0.6 8.6 0 13.7 0 26.7-1.3 42.3-0.6 6.8 0.6 12.4-1.2 20.5-1.3 6.8 0 15.5-6.8 19.2h-4.4c-1.8-4.3 1.9-8.1 1.9-11.8 0.6-8.1 4.3-15.5 3.1-23.6-0.6-6.8 0.6-13 0-21.7 0.6-5.6 1.8-16.2 1.2-21.7zm96.9-181.3l-8.1-1.3c-3.1-2.5-6.2-3.7-9.3-6.2-7.5-5-18-8.1-25.5-15.5-6.8 0-9.9 6.8-16.7 10.5-0.7 0.7-1.9 1.3-3.1 0 2.4-5.5 8-8 12.4-12.4 2.5-1.2 5.6-3.1 7.4-4.9 5 1.8 6.9 4.9 10.6 6.8 6.2 3.1 8.7 6.2 13.6 8.1 5 3.1 8.7 4.9 13.1 6.8 3.1 1.8 9.9 1.2 6.8 7.4zm-13.7-81.3c0 3.1-4.3 4.3-8 4.3-5 0-6.2 1.9-10 3.8-1.2 1.8-2.4 3.7-1.8 5.6 0 3.7 6.2 4.3 10.5 5.5 1.3 0.7 1.9 1.9 1.9 3.2-1.9 1.2-3.7 0-6.2 0.6-6.2 1.2-13-1.3-19.3-0.6-2.4 0.6-3.1 0-6.2 1.2-1.8 0.6-2.4 0.6-4.3 1.2-3.7 1.3-11.2 0-11.2 3.8-1.2 4.3-1.8 9.3-2.5 13.6 0 1.9 0 4.4-1.2 6.8 0 6.3 1.2 16.2 3.1 24.9 0 1.8-0.6 4.3 0 6.2 3.7 3.7 10.6 1.2 13 1.9 5 0 8.1 0.6 12.5 0 3.7 0.6 8 0 12.4 1.2 0.6-0.6 1.8 1.2 2.5 1.2 0 2.5-1.9 2.5-3.8 2.5-3.1 0.6-6.8 0.6-11.1-0.6-9.4 0-16.8 1.2-28 1.2-5 0-7.4 0-13.6 0-1.3 0-5.6 0.7-6.9 0.7-6.2-0.7-6.2-0.7-12.4-1.3-1.2-0.6-3.7 0.6-4.3-1.2-0.7-2.5 1.8-2.5 2.5-2.5 5.5 0 10.5 0 15.5 0 6.8 0 9.9 0 14.2-1.9 1.3-1.8 0.7-3.7 0.7-4.9 0.6-7.5-1.3-14.9-0.7-23.6 0.7-4.4 0-10.6 0.7-15.5 0.6-3.8 0.6-13.7 3.7-16.2l13.7-3.1c4.9 0 8.6-0.6 14.2-0.6 2.5-0.6 6.2-1.9 7.5-5 0-2.5-1.9-4.9-4.4-5.6-3.7-0.6-3.1-0.6-7.4-1.2-2.5-0.6-5 0.6-6.8-2.5-5-6.2-6.3-14.9-5-23 0.6-1.8 1.9-3.7 3.7-1.8 3.1 3.1 1.3 6.2 0.6 9.3-0.6 7.4 3.8 11.2 6.2 13 3.8 1.3 4.4 0.6 8.1 0 3.7-2.5 1.9-6.8 3.1-10.5-0.6-6.2 1.3-9.3 3.1-14.3 2.5 0 2.5 2.5 3.1 4.3v2.5c0.6 5-0.6 11.2 1.9 16.8 1.2 2.5 1.9 1.8 4.3 1.8 3.8-1.2 6.9-3.1 7.5-6.8 1.2-4.3-1.9-11.8 4.3-12.4 1.3 0 1.3 0.6 1.3 1.2zm0 52.2c-1.9 0-3.8 0-5.6-1.3-4.4-5.5-15.5-8-19.9-11.1-5.6-2.5-6.2 0-9.9 1.8-2.5 2.5-5.6 3.8-8.7 5.6-1.9 1.9-2.5 2.5-4.4 3.1-1.2-0.6-2.4-1.2-1.2-1.8 2.5-3.1 3.7-4.4 6.2-6.2 4.4-2.5 9.3-6.3 13.7-9.4 4.9 2.5 14.3 5 19.2 7.5 3.7 3.7 9.9 5 13.1 9.3 0 1.9-1.3 2.5-2.5 2.5zm-22.4 74.5c1.9 6.2 0.6 18-2.5 20.5-2.4 3.7-5.5 3.7-8 4.3-8.7 1.3-6.2 1.3-14.3 2.5l-13.7 1.3c-8 0-14.2 0.6-22.9 0-4.4 0.6-8.7-1.3-12.5-2.5-1.2-1.3-3.1-1.3-3.1-3.8 0-2.4 5-1.2 8.7-1.2 8.1 0.6 15.6 1.2 23.6 1.2 8.1-1.2 11.2-0.6 21.1-1.2 2.5 0 6.9-1.2 8.1-1.9 7.5-2.4 6.8-2.4 8.7-9.3 1.2-6.2 0-8-6.8-9.9-8.1-1.9-14.3-0.6-19.3-5.6-3.7-5 0.6-11.8-6.8-14.9-6.8 0.6-11.2 1.2-18.6 0.6-3.8 0-6.2 0.6-10 0.6-2.4-0.6-4.9-0.6-8.7-0.6-1.8 0-2.4-0.6-4.9-0.6-1.3-1.2-3.7-2.5-1.9-4.3 3.1-1.9 5.6 0 8.1-1.3 6.8 0 12.4 0 19.2-0.6 3.1 0.6 5.6 0.6 7.5 0.6 6.2-0.6 12.4 0.6 19.2 0 5.6 0 10 0.6 14.3 0.6 4.3 0 6.8 0.7 8.7 0 5-1.2 8.7 0.7 13 0 5.6 0.7 8.1-1.2 13.1 0 1.2 0 2.4 2.5 3.1 2.5-0.7 1.3-1.3 2.5-2.5 3.1-4.4 1.9-8.1 0.6-14.3 0.6-4.3 0.7-8.1 0-14.3 0.7-3.1-0.7-6.8-0.7-11.1-1.3-3.8 0-6.3 0.6-8.7 1.3-0.7 3.1 0.6 6.8 3.7 9.3 3.1 2.5 9.3 1.8 14.3 3.1 3.7 1.2 9.3 1.8 10.5 6.2zm-36.6-143.4c-1.2 6.2 0.6 18-6.2 24.2-5.6 1.2-12.4-1.3-16.2 4.3-3.7 5 0 9.3-1.2 14.3 1.9 6.2 8.1 8.7 11.8 13.7 2.5 2.5 3.1 3.7 3.7 6.8-1.2 0.6-2.5 1.2-3.7 0.6l-3.7-3.7c-1.9-1.9-4.4-5-6.9-5.6-9.9 0-14.2 8.7-21.7 13q-3.7 2.5-7.4 5.6c-1.3 1.3-2.5 2.5-4.4 3.8-3.1 2.4-5.6 4.3-9.3 4.9l-0.6-1.2c0.6-1.9 3.7-3.7 6.2-5.6 5-5.6 10.6-12.4 17.4-15.5 4.9-5 12.4-8.1 14.9-14.9 0.6-2.5-1.3-4.4-2.5-6.2-0.6-3.8 1.9-8.7-3.1-10.6-5.6 0.6-11.8-3.1-13-4.3-6.9-8.1-8.7-19.3-4.4-29.2h0.6c5 1.2 3.1 5.6 3.1 9.3 0.7 5 1.3 10.6 5.6 14.3 1.3 1.8 3.7 3.1 5.6 3.7 1.9 0 4.4-1.2 4.4-3.1 3.1-6.8-1.3-13.7 1.8-20.5 0-1.9-0.6-5 1.9-5.6l4.9 0.6c0 5-1.8 8.7-1.2 13.1 0 4.3-0.6 8.7 2.5 11.2 1.2 1.8 3.7 2.4 5.6 1.8 5.6-0.6 8.7-5.6 9.3-9.3 0-5.6 1.2-10.5 1.2-13.7l0.6-2.4q3.8 1.8 4.4 6.2zm-11.8 88.1c-3.1 0.7-2.5-3.1-4.3-4.3-3.2-2.5-5.6-8.1-10.6-5.6-2.5 1.2-4.3 3.1-6.8 4.3-7.5 8.7-14.9 12.5-22.4 19.9-1.2 0.6-2.5-0.6-3.1-2.5 2.5-2.4 5.6-4.9 8.7-7.4 1.9-1.3 3.7-4.4 6.2-5.6 1.9-1.9 3.1-3.7 4.4-5 4.3-4.3 7.4-5.6 11.1-9.3 1.9-1.2 4.4-2.5 6.2-1.2 1.9 4.3 6.9 6.2 10 9.9 1.2 1.9 4.9 5.6 0.6 6.8z"/><path class="c" d="m890.1 0.9c16.1 0.6 25.4 6.8 35.4 11.8 19.2 10.5 31.6 18.6 57.1 19.2 13.6 0 27.3 1.9 39.7 7.5 44.7 21.1 69.5 96.2 77.6 137.2 2.5 14.3 1.3 29.2 0 43.4-1.8 14.3-3.1 28 0 39.8 4.4 21.7 13.1 21.7 18.6 21.7 5.6 0 12.5-1.9 19.3-3.1 5-1.2 10.5-2.5 16.1-3.1 12.4-1.9 24.9-2.5 36.7-2.5q25.4 0 49 5.6c16.1 4.3 32.3 5.6 49 7.4 12.5 0.7 25.5 1.9 38.5 4.4 13.7 2.5 59 10.5 84.5 21.7 14.2 6.2 26 16.2 36.6 26.1 9.9 8.7 18.6 16.1 29.8 22.3 63.9 34.2 82.6 73.9 63.3 137.9-1.9 6.8-3.7 13.6-5.6 19.9-6.2 21.7-12.4 44-19.8 64.5-8.7 26.7-23 37.9-39.2 51.6q-7.4 6.2-15.5 13c-14.9 14.3-26 31.7-38.5 50.9-16.1 26.1-33.5 53.4-62 70.2-24.3 14.2-42.9 14.9-67.1 16.1q-1.9 0-4.3 0c-10.6 5 0.6 27.9 8.7 41.6 4.3 7.5 8.6 15.5 13 26.7 3.1 8.1 3.1 16.8 3.1 24.8 0.6 6.9 0.6 13.7 2.5 18.7 0.6 2.4 4.3 5.6 7.4 8 5.6 5 13.1 11.8 16.2 21.8 6.8 24.8 4.9 77-2.5 95.6-1.9 4.9-6.8 10.5-12.4 16.7-4.4 5-9.3 10.6-11.2 14.3-2.5 4.4-3.1 10-4.3 15.5-1.9 8.7-3.8 19.3-10.6 28.6-24.8 36-78.8 54.6-122.3 70.2-11.2 3.7-21.1 7.4-29.8 10.5-11.8 5-21.7 7.5-30.4 7.5-12.4 0-21.7-5-32.9-10-5.6-2.4-11.2-5.6-18.6-8-18-6.9-35.4-8.7-54.7-10.6-9.9-0.6-19.8-1.2-30.4-2.5-20.5-3.1-33.5-12.4-45.9-21.1q-2.5-1.8-5.6-3.7h-1.9q-27.9 0-41-11.8c-20.4 29.2-50.9 50.9-96.2 69.5-29.8 16.2-60.8 23.6-88.1 28.6-7.5 1.9-13.7 3.7-19.3 5.6-24.2 8.1-50.3 11.8-77 11.8q-14.9 0-29.8-1.9c-34.7 0-62.7-8.1-84.4-24.2-23.6-11.2-44.7-26.1-61.4-44.1-24.9-17.4-52.2-37.9-65.8-64.6-15.6-32.9-8.1-47.1 1.8-65.8 3.1-4.9 6.2-10.5 8.7-17.4q1.2-1.8 2.5-4.9c18-41 23.6-59 24.8-66.5-20.5-6.2-38.5-24.8-54.6-55.8-8.7-17.4-18-32.3-24.2-39.8-3.7-4.3-8.7-9.9-14.3-15.5-3.7-3.7-9.3-8.1-10.6-9.3-18.6-18-40.9-29.2-63.3-40.4-19.8-9.9-40.3-19.8-57.1-34.7-11.2-10-20.5-22.4-29.8-39.8-26.1-40.3-52.1-83.2-59.6-126-7.4-42.2 3.1-66.4 16.8-91.9 3.7-8.7 8-17.4 13.6-25.4q3.1-7.5 6.2-13.7c3.1-6.2 5-11.2 6.9-16.1 3.7-11.2 7.4-19.9 21.1-34.8 16.7-18 30.4-27.3 49-36 20.5-10 43.5-17.4 61.5-18.7 1.2-0.6 13.6-1.8 18-1.2 4.3 1.2 8.7 1.9 12.4 1.9q1.2 0 2.5 0c4.3-0.7 8.7-2.5 12.4-4.4 6.2-3.1 12.4-3.7 21.7-3.7h1.9c19.2 0.6 88.8 36.6 108.6 37.2 0 0 5 0 6.9-0.6 2.4-0.6 4.9-2.5 4.9-2.5 8.7-7.4 16.2-17.3 21.8-29.8q0.6-1.2 1.2-3.1 1.2-3.7 2.5-6.8v-0.6q1.2-3.1 2.5-6.8c4.3-13.7 6.8-28 9.3-42.3 0.6-3.7 1.2-7.4 2.5-11.1l0.6-3.8 0.6-3.7c0.6-1.2 0.6-4.3 0.6-4.3 0.6-0.7 0.6-1.9 1.3-3.1v-0.7q0-1.2 0.6-3.1v-0.6c0.6-1.2 0.6-2.5 1.2-3.7v-0.6q0.6-1.3 0.6-3.1l0.7-0.7q0.6-1.8 0.6-3.7 0.6-1.8 1.2-3.1l0.6-1.2q0-1.9 0.7-3.1v-0.7c0.6-0.6 1.2-1.8 1.2-3.1l0.6-0.6q0.7-1.8 1.3-3.1v-0.6q0.6-1.2 1.2-3.1l0.6-0.6q0.7-1.9 1.3-3.1c7.4-14.3 11.8-31.1 16.7-49.7 10-36 19.9-73.9 52.2-93.1 14.3-8.7 29.2-10 42.8-11.2 12.4-1.3 24.2-2.5 34.8-7.5 8.7-4.9 16.1-11.1 23.6-17.3 11.2-9.4 22.9-19.3 39.1-23.6q2.5-1.3 5-1.9h0.6c1.8-0.6 3.7-0.6 4.9-1.2h0.7q2.4-0.7 4.3-1.3h1.2q1.9-0.6 4.4-0.6h1.2q1.9-0.6 3.8-0.6l1.2-0.6q1.9 0 3.7 0c0.6 0 1.9 0 1.9 0 1.2 0 1.9 0 3.1-0.7q1.2 0 2.5 0 1.2 0 2.5 0h2.4 1.9 1.9 2.5 1.2q7.4 0 16.8 0.7 3.7 0.6 6.8 0.6h1.2q3.1 0.6 6.2 0.6c5.6 0.6 10 0.6 14.9 0.6 13.7 0 24.9-1.8 40.4-4.9 12.4-3.2 27.3-5.6 36-5.6z"/><path class="d" d="m870.8 10.8c-29.8 5.6-44 10.6-73.2 7.4-25.5-2.4-50.9-4.3-78.9 4.4-24.8 7.4-38.4 29.2-61.4 40.3-24.8 13.1-52.8 3.8-77 18.7-44.7 27.3-43.4 96.2-65.2 139.7-24.2 47.8-13.6 121.7-58.9 157.7 0 0-3.2 2.5-6.9 3.1-3.1 0.6-8.7 0.6-8.7 0.6-21.1-0.6-82.5-35.4-109.9-36.6-13.6-0.7-21.1 6.8-34.1 8-6.2 0.7-11.8 0-17.4-0.6-4.9-0.6-10.5-0.6-16.1-0.6-19.3 1.9-41.6 9.9-57.8 18-18.6 9.3-31.6 17.4-47.1 34.8-18 19.2-16.2 26.7-26.1 48.4-23 49-45.3 69.5-36 126 8.7 48.5 42.2 97.5 69.5 140.4 31.7 48.4 95.6 53.4 139.7 96.2 15.5 15.5 34.8 33.5 47.8 49.7 11.8 14.9 54 56.5 56.5 71.4 2.5 13-21.1 65.8-27.3 80.1-13.1 30.4-28.6 38.4-11.2 75.1 21.7 43.4 83.2 70.8 118.6 101.2 47.8 41.6 119.2 26.1 177.5 17.4 60.9-9.3 115.5-18.7 162.7-67.1 24.8-24.8 35.4-50.9 76.3-37.2 31.1 10.5 42.2 32.2 75.1 37.2 32.3 5 57.8 2.5 87 13.7 32.2 12.4 39.7 25.4 75.7 11.1 42.8-17.3 118.6-36 148.4-78.2 9.3-13.6 8-30.4 14.2-42.8 4.4-9.3 20.5-23 23-30.4 6.2-16.2 9.3-66.5 2.5-89.5-4.3-13.6-19.9-19.8-23.6-29.1-5-13.1-0.6-30.5-5.6-43.5-11.8-33.5-42.2-64.6-19.8-79.5 3.1-1.8 47.8-0.6 73.2-15.5 47.2-27.9 61.5-85 99.3-119.8 23-21.1 41.6-29.2 52.8-60.9 8.7-26.7 16.8-55.8 25.5-84.4 18.6-64.6-4.4-98.7-59.6-128.5-25.5-13.7-40.4-37.3-65.2-47.8-22.4-9.3-60.9-17.4-82.6-21.8-31.6-4.9-59-4.3-88.8-11.8-26.7-6.2-54-6.8-82.5-2.4-30.4 4.3-54 18.6-63.4-21.8-5.5-26 5-56.5 0-83.8-7.4-41-31.6-111.7-72.6-131.6-24.2-11.2-51.5-3.1-77.6-17.4-22.3-13-34.1-18.6-55.9-18.6q-6.8 0-14.9 0.6z"/><path class="e" d="m883.3 8.9c-3.8 0-8.1 0.7-12.5 1.9-29.8 5.6-44 9.9-72.6 6.8-5 0-21.7-1.2-27.9-1.2-16.8-0.6-33.5 0.6-51.6 6.2-24.8 7.4-38.4 29.2-61.4 40.4-24.8 13-52.8 3.7-77 18.6-44.7 27.3-43.4 96.2-65.2 139.7-18 35.4-16.7 85.7-34.1 124.1q1.8 21.2 8.1 40.4c6.8 21.7 48.4 20.5 40.3 61.5l1.9 6.8c33.5 111.1 231.5 83.2 288 40.4 29.2-22.4 83.8-40.4 106.2-67.7 19.2-24.9 81.3-44.7 97.4-70.8 24.3-41 55.9-95.6 53.4-132.9-9.3-116.1-79.4-169.5-134.1-194.3-25.4-11.8-32.9-19.9-55.8-19.9q-1.9 0-3.1 0z"/><path class="f" d="m902.5 23.2q-5.6 0.6-12.4 1.9c-30.4 5.6-45.9 10.5-75.7 8-5-0.6-23.6-1.8-29.2-1.8-16.8-0.6-34.2 0.6-52.8 6.2-26.1 7.4-40.3 29.2-63.9 41.6-26.1 13-55.3 3.7-80.1 18.6-24.9 14.9-54.6 68.9-64 137.2-2.4 23 13.1 44.1 10 70.2-13.7 111.1 18 85.7 41.6 130.4 44.7 83.8 40.3 109.2 18 104.9 24.8 29.8 47.1 67.1 29.1 91.3 75.2 16.1 171.4-4.4 208.6-32.9 29.8-23 71.4-45.4 94.4-74.5 19.9-25.5 57.1-106.2 73.3-133.5 26-41.6 54-50.3 73.8-129.2 33.5-130.4-32.9-186.9-103-216-22.4-9.3-50.9-22.4-65.2-22.4q-1.3 0-2.5 0z"/><path class="g" d="m790.8 719.2c-47.2 11.8-131 0.6-171.4 28.6-36 24.8-70.1 59-87.5 98.1-42.2 46.5-88.2 87.5-114.2 123.5-28.6 39.8-33.6 103.1-14.9 139.7 50.9 101.8 179.4 134.1 277.5 103.1 94.9-21.1 211.7-48.4 224.7-175.1 6.8-62.1 24.2-126.7 3.7-185-15.5-42.2-19.2-136-93.1-136q-11.2 0-24.8 3.1z"/><path class="h" d="m96.1 564c-1.3 45.3 36 95 55.9 134.1 29.1 57.1 55.8 59.6 107.4 87.5 43.4 23 70.7 50.3 94.9 97.5 63.4 121.1 132.3 8.1 187.5-36.6 40.4-32.9 65.2-106.8 53.4-159.6-8.1-34.7-36.6-86.3-65.8-108l18.6 12.4c-23.6-23-5.6-51.5-16.1-79.5-9.3-24.8-23.6-54.6-36.6-81.9-19.9-41-42.3-30.4-62.1-20.5-11.2 5.6-21.1 11.2-29.8 8.7-25.5-6.8-63.3-15.5-87.6-24.8-16.7-6.9-34.1-10-50.9-10-87.5 0-167 85.1-168.8 180.7z"/><path class="i" d="m1127.9 298.9c-26.1 4.3-53.4 23.6-72.1 36.6-21.1 16.2-33.5 57.8-55.2 70.2-48.4 22.3-49.7 34.1-76.4 76.3-21.7 34.8-49 83.2-70.7 121.1 0 14.3 1.2 29.2 3.7 42.9 4.3 23.5 31.6 61.4 31 81.9l0.6-8.1c22.4 120.5 267.6 156.5 222.3 98.1-116.1-151.5 65.2-225.3 88.1-197.4 142.2 176.9 199.3 73.3 213 55.3 29.8-39.8 52.1-80.1 59.6-119.3 45.3-250.8-95.6-215.4-175.1-250.2q-5.6 0-13 0c-30.4 1.9-46 5-74.5-1.8q-7.5-1.3-14.3-3.1-6.2-0.7-14.3-2.5c-9.3-1.3-18.6-2.5-28.5-2.5q-11.2 0-24.2 2.5z"/><path fill-rule="evenodd" class="j" d="m1054.6 334.3q1.2 0 1.2 1.2c-38.4 100-1.8 113.6 14.3 160.2 8.1 35.4-106.1 179.4 29.2 83.8 25.5 16.2 39.7 13.7 50.9 11.8 8.1-1.2 14.3-2.5 21.7 1.3 25.5 13 14.3 44 31.7 66.4 11.8 15.5 29.2 42.2 43.4 55.9 18.1 16.1 37.3 45.9 29.2 57.7-6.8 3.7-23.6-52.1-57.7-57.7-14.3-2.5-42.8-3.8-56.5 0-20.5 5.6-27.3 29.8-52.1 24.2 10.5 24.2-12.5 24.8-10 50.3 0.6 7.4 1.9 8.7 3.1 9.3-1.8 2.5-6.8 9.9-16.7 30.4-6.9 13-21.1 11.8-36.7 11.2-24.8-1.3-52.1-2.5-49.6 55.9 1.2 26.7-56.5 30.4-72.7 50.3-31 38.4 28.6 94.3 14.9 173.2-104.3 9.9-40.9-80.7-36-96.9 10-34.7-11.1-52.1-11.8-88.1-3.1-376.3-110.5-126.7-118.5-110.6-11.8 23.6-41.6 123-63.4 133.5-21.1 10 16.2-29.8-2.4-44.1-18.7-14.9 46.5-90.6-21.8-87.5-65.2 3.1-176.3 46.6-217.3 87.5-17.3 17.4-30.4 44.1-54.6 47.9-4.9-33.6 79.5-72.7 98.7-101.2 56.5-84.5 9.3-108.7 20.5-154 10.6-41.6 27.9-59.6 29.8-101.8 1.3-21.2 0.6-14.3 1.3-35.4 0.6-13.1-3.2-22.4-5-29.2-1.3-6.2-3.1-13.1-1.9-25.5 1.3-12.4 12.4-19.2 13.1-31.6 0.6-5.6-5-17.4 0-18.7 0.6-0.6 8.7 11.2 19.8 22.4 16.2 16.7 39.1 34.1 58.4 13.6 17.4-18.6-16.8-29.8 4.9-32.9 21.8-3.7 50.3 37.3 73.3 42.9 36.6 9.3 77.6-5 116.1-30.4 6.2 0 13 0.6 19.9 0.6 27.9-0.6 58.9-6.2 75.1-28.6 8.7-11.8 15.5-23.6 25.4-34.8 10-11.1 19.9-14.2 33.6-22.3 19.8-10.6 24.8-19.9 35.3-37.3 3.8-6.8 11.8-14.2 19.3-22.3q0.6-0.6 0.6-0.6zm49.7 463.1q0 0 0 0.7-0.7 0.6-1.3 0.6 1.3-1.3 1.3-1.3z"/><path class="b" d="m626.2 816.7c-14.2-9.9 0-46 16.8-64 16.8-18 42.2-47.1 35.4-50.3-6.2-3.7-35.4 3.2-44.7 0-8.7-3.7 50.3-27.3 57.1-30.4 6.8-3.1-42.2-16.7-60.2-19.2-18-1.9-55.3 3.7-51.5-4.4 3.1-7.4 24.2-18 29.1-22.3 4.4-4.4-28.5-21.1-30.4-29.2-2.5-8.1 6.9-15.5 40.4-8.1 33.5 8.1 61.4 5 76.3 8.1 14.3 3.7 22.4 6.8 28 9.9 5.6 3.8 9.3-8.7 14.3-6.8 4.3 1.9 14.9 8.7 16.1 1.9 0.6-6.9-4.4-19.3-13.7-28-9.3-8-24.2-24.8-26-30.4-1.9-6.2-9.4-20.5-1.3-23.6 8.7-3.1 16.2-0.6 20.5-2.5 5-1.8 13-14.3 24.8-9.3 12.5 5 18 10 21.8 12.4 3.7 3.1 10.5 5 16.1 3.1 5.6-1.8 14.9-13 25.5-6.8 10.5 6.8 29.1 21.7 46.5 18 16.8-3.7 26.7-11.8 31.7-21.7 4.9-10.6 19.8-42.2 25.4-48.4 6.2-5.6 21.1-18.1 19.3-13.1-2.5 4.4-18 37.9-16.8 55.3 0.6 16.7-3.1 21.1 2.5 25.4 5.6 3.8 12.4 2.5 18.6 0 6.2-3.1 16.2-9.9 17.4-5.6 1.2 4.4-34.1 28-44.7 38.5-11.2 10-21.1 30.5-16.1 39.2 4.9 8 25.4 4.3 35.4 4.3 10.5 0 32.2 1.9 29.1 6.8-2.5 5-39.1 29.2-39.1 33.6 0 4.3 22.4 11.8 34.8 12.4 12.4 0.6 42.2 4.9 53.4 8 11.8 2.5 21.7 1.9 23.6 8.7 2.4 6.2 6.2 11.8 1.8 12.5-3.7 0.6-29.2-3.2-37.2-6.9-8.1-3.1-51.5-12.4-60.9-12.4-9.9 0.6-38.4 0-43.4 9.3-5.6 10 16.1 16.2 20.5 20.5 4.9 4.4 21.7 22.4 11.1 24.2-10.5 1.9-19.2-6.2-23.5-7.4-4.4-1.9-20.5-13.1-24.9-16.2-4.3-3.1-22.3-22.9-31-21.7-8.7 0.6-26.7 3.7-37.3 10.6-9.9 6.2-21.1 18.6-26.7 25.4-6.2 7.5-31 23-40.9 31.1-10 8.6-65.8 52.7-76.4 60.2-9.9 7.4-35.4 17.4-46.6 9.3z"/><path fill-rule="evenodd" class="a" d="m787.7 485.8c-4.4-6.2-2.5-20.5 0.6-29.8 3.1-7.5 26.7-51.6 51.5-43.5 10.6 3.7 16.8 8.1 19.9 18.6 4.9 17.4 5.6 44.1-8.1 57.8-19.2 19.8-52.8 13-63.9-3.1zm-168.9 24.8c-11.8-16.8 3.1-36 11.8-50.9 5-9.3 13-6.2 21.7-5 11.8 0.6 15.5-8 28.6-2.5 10.5 4.4 30.4 52.8 29.2 56.5-0.7 3.1-18.7 4.4-21.1 13.7-1.3 6.8-10.6 14.9-18.1 16.8-21.7 3.7-39.7-12.5-52.1-28.6zm330.3 67.1c-3.8 3.7-10.6 6.2-15.6 1.8 14.9-18 27.4-24.2 45.4-37.9 6.2-6.8 1.2-36 4.3-45.9 3.1-9.9 33.5-30.4 46.6-23.6 6.8 3.7 13.6 6.2 17.4 11.8 7.4 11.2 6.8 29.8 6.8 38.5 0.6 11.8-6.2 20.5-9.3 31.7-3.1 11.1-23 9.3-32.3 10.5-11.8 0.6-23.6-8.1-34.8-1.2-6.2 3.7-23.6 8.7-28.5 14.3zm-171.4 94.9c4.4 5.6-1.8 14.9-5.6 19.9-4.3 6.2-11.1 9.3-25.4 23.6-13.7 14.9-28.6 31.7-32.3 36.6-3.7 5-12.4 18.7-15.5 15.6-3.7-3.1 6.2-21.8 9.3-26.1 2.5-4.4 16.8-24.2 21.7-27.3 5-3.1 31.1-24.9 30.4-27.4-0.6-3.1-9.9-2.4-13.6-1.2-4.4 0.6-24.2 7.5-29.8 9.3-5 0.6-11.8-2.5-3.7-9.3 7.4-6.8 9.9-8.1 14.2-8.7 3.8-0.6 15.6-1.2 18-3.7 2.5-2.5 3.1-10.6 0.7-11.8-2.5-1.9-6.2-0.6-10-0.6-3.1 0-42.8-7.5-49.6-8.7-6.9-1.3-44.7-11.2-51.6-12.4-6.8-1.3-7.4-5.6 3.1-5.6 11.2 0 31.1 3.7 37.9 3.7 7.5 0 15.5-1.2 23-1.2 8.1 0.6 29.2 4.3 35.4 2.4 6.2-2.4 14.9-6.2 16.1-10.5 1.3-3.7 2.5-8.7-1.2-12.4-3.8-3.8-20.5-15.6-25.5-24.2-4.3-8.7-9.3-17.4-13.6-19.9-5-2.5-12.5-3.7-16.2-8.7-3.1-4.4-4.9-16.8 1.3-14.3 5.5 2.5 21.7 10.6 24.2 14.3 2.5 3.1 6.8 11.2 11.8 17.4 4.9 5.6 15.5 16.1 20.5 18.6 5.5 3.1 15.5 10.6 18.6 16.8 15.5 1.2 19.2 0 29.8 0.6 3.1 0 6.8 0.6 11.1 0.6q0 0.6 0 0.6c0.7 1.9 2.5 0 3.2 0 7.4 0.7 13.6 1.3 15.5 2.5 3.7 1.9 14.9 6.8 18.6 3.1 3.7-3.7 14.3-25.4 18.6-31 3.7-5.6 23-29.2 27.3-36 3.8-6.2 26.1-24.2 28.6-23 1.9 1.2 6.2 4.3-1.9 11.8-8.7 7.4-32.3 31-36 37.2-3.1 5.6-16.7 27.4-19.2 32.3-2.5 4.4-9.3 9.3-7.5 12.4 1.9 2.5 16.2 6.9 19.3 9.4 2.5 3.1 11.1 19.2 4.9 22.9-6.2 4.4-13.6 0.7-19.2-4.9-5.6-6.2-8.1-12.5-14.3-16.2-5.6-3.7-13-5.6-23.6-9.9-11.1-3.7-35.4-4.4-42.2-2.5-6.8 1.2-19.9 6.2-20.5 13.7-0.6 7.4 1.9 16.7 14.9 32.2zm-304.2-21.1c-8.7-24.8-7.4-74.5 23-83.8 28.6-8.7 38.5 8.1 56.5 29.2 8.7 11.2 19.2 19.2 33.5 22.4 2.5 0 8.1 1.8 8.1 4.9-20.5 3.7-38.5 11.2-54 34.2-17.4 25.4-57.1 21.7-67.1-6.9zm669.3-31c31.6-11.8 56.4 3.7 41.5 29.8-8 13.7-5.5 28.6-14.2 42.2-7.5 10.6-24.9 16.8-37.9 11.8-11.8-3.7-27.9-11.2-36.6-19.9-9.3-9.9-12.4-18-28-22.3-25.4-6.8-53.4 0-78.2-9.3 28-14.9 60.9 1.2 90.7-1.3 13-0.6 21.7-23.6 62.7-31zm-177 30.4c5.6-3.7 14.9-3.1 22.4 0.6-5 2.5-16.8 0.7-22.4-0.6zm-303.5 62.7c-11.8 14.9-28.6 24.2-42.3 37.3-13.6 12.4-21.1 31-24.8 48.4-5 20.5-6.2 32.9-23.6 45.3-17.4 13.7-28.5-5.6-41-13-9.9-5.6-40.9-23.6-37.2-36.6 1.2-5 12.4-13.1 16.8-17.4 4.3-4.4 64.5-68.9 93.1-34.8 19.8-9.3 31-31.7 59-29.2zm354.4-114.8c-14.2-2.5-30.4-1.3-41.6-4.4 10 1.9 48.5-21.1 54 1.3 0.7 4.3-8 3.7-12.4 3.1zm-198.6 131c-8.7 14.9-10 31.6-24.2 45.3-4.4 4.3-11.2 4.3-15.6 9.9-4.3 5-8 10.6-11.1 15.5-5 7.5-10.6 19.9-18.7 24.3 1.3-13.1 11.2-27.4 16.2-39.2 5.6-13.6 3.1-30.4 14.9-41.6 10.5-10.5 24.2-17.3 34.8-29.8 8-9.3 23.5-21.1 34.7-21.7 11.2 0 18 5 24.8 11.8 6.9 6.8 25.5 24.2 35.4 38.5 6.9 8.7 9.3 21.1 18 27.3 11.2 8.7 17.4 15.5 24.2 28 8.1 16.1 0.7 25.4 0.7 41.6-0.7 16.1 4.9 31.6 6.8 47.1-3.1 15-13.7 23.6-26.7 29.9-13 6.2-23 2.4-35.4-5-9.9-6.2-11.8-5.6-23-6.8q-8-1.3-13-7.5c-9.3-14.3 1.3-34.8 4.4-49.7 4.3-21.7 29.1-31 35.3-50.9 6.3-19.8 10.6 3.7 23-1.8 8.7-4.4 3.1-22.4-1.8-26.7-9.4-6.9-23.6-14.3-33-19.9-11.1-6.8-14.9-21.7-26-27.9-11.2-5.6-36.7-3.1-44.7 9.3zm286.8 155.2c-9.9 5.6-33.5-2.5-36-4.4-4.4-2.4-23.6-3.7-29.2-11.1-5-7.5-2.5-18-1.9-25.5 1.3-24.2 12.5-46.6-10.5-65.8-10.6-8.7-32.3-16.8-38.5-29.8 7.4 0.6 13 2.5 19.2 3.7 10 2.5 19.3 4.4 28.6 7.5 9.9 3.7 13 10.5 21.1 15.5 6.8 3.7 12.4-3.1 18-5.6 16.1-7.4 34.2 19.9 40.4 31 4.9 10 8.7 18.7 6.2 29.9-1.9 8 0.6 16.7 1.8 25.4 0.7 6.2-8.7 23.6-19.2 29.2zm-238.4 194.3c6.8-1.2 16.1 6.2 31.7 11.8 14.9 6.2 27.3 9.3 39.7 10 12.4 0.6 35.4 14.9 39.1 22.9 4.3 8.1 6.8 30.4-0.6 43.5-6.8 12.4-19.3 29.8-13.1 57.7 6.9 28 18.7 38.5-1.8 36.7-20.5-1.9-36-8.7-47.8-12.5-11.8-3.1-28.6-4.9-41.6-20.4-12.4-16.2-21.1-13.1-42.2-26.1-21.1-12.4-33.6-39.8-23-51.6 10.6-11.8 42.8-40.3 46.6-46.5 4.3-6.2 9.9-24.9 13-25.5zm417.8-165.1c0-6.9 15.5-16.8 16.1-21.1 1.3-3.8 1.9-28.6-1.2-39.8-2.5-10.5-4.3-21.7 3.1-26.7 8.1-5.6 29.8-12.4 42.8-6.8 13.1 5.6 23.6 10.5 35.4 15.5 12.4 4.4 43.5 20.5 49.1 32.3 5.6 11.2 13 23.6 4.9 36-8.7 13.1-8.7 21.7-14.9 27.3-6.2 5-22.3 16.8-31 28-8.7 11.1-15.5 34.7-26.1 39.7-10.5 5-31.6 11.2-37.9 4.4-6.2-7.5-9.3-23.6-8-30.5 1.8-6.2 16.1-18.6 13-29.2-3.7-10.5-14.9-11.7-26.1-16.1-11.8-3.7-19.2-6.8-19.2-13zm-983.3 93.7c-6.3-5.6-11.8-11.2-8.7-17.4 2.4-6.2 9.9-19.2 11.1-29.1 1.3-10.6 1.3-34.8 0-42.3-0.6-6.8 3.8-18 5.6-24.2 1.9-6.8-0.6-19.2 11.8-23 12.4-4.3 24.8-3.1 36-1.2 10.6 1.9 32.3 7.5 38.5 19.3 6.2 11.8 9.9 25.4 17.4 30.4 6.8 4.3 28.6 13.6 29.2 17.4 0 3.1-4.4 7.4-11.8 20.5-7.5 13-7.5 47.1-8.1 54-1.2 6.2-0.6 31-9.3 36.6-8.1 5.6-21.7 0-34.1-5.6-12.5-6.2-29.8-13-36.7-19.9-6.2-5.5-6.2-13-10.5-14.9-4.4-1.8-24.9 5.6-30.4-0.6zm458.1-122.3c5 5 6.2 21.1 6.2 26.1-0.6 9.3-1.2 23-6.2 29.2-5 6.8-21.7 15.5-26.7 17.3-5.6 1.9-20.5 7.5-29.2-0.6-3.7-3.1-16.7-11.8-21.1-19.8-3.7-8.1-8-38.5 7.5-55.9 6.8-8.1 20.5-8.7 29.1-16.2 7.5-6.2 14.9-13.6 23-19.2 0.6 8.7-6.2 18.6 0 26.7 3.7 5 12.4 6.8 17.4 12.4zm214.8-190.6c5 1.9 13 1.2 19.9 2.5 6.8 1.2 6.2 4.9 11.1 7.4 13.7 8.7 40.4 2.5 49.1 21.1 2.5 6.3-6.2 8.1-11.2 10-11.2 4.3-32.9-5-35.4-8.7-3.1-3.1-24.8-11.2-36.6-18-3.7-1.9-6.8-5.6-11.8-7.5-10.6-3.7-27.9-2.5-34.8-12.4 11.8 0 16.2 3.1 27.3 5 7.5 0.6 17.4-1.3 22.4 0.6zm-144.6-153.4c0 3.8-1.9 5.6-0.7 18 0.7 12.5-3.1 16.8-3.1 16.8-7.4-13.6-3.7-31-1.8-39.1 1.8-8.1 1.2-10.6 1.2-10.6 0 0 5 10.6 4.4 14.9zm-14.9 77q-1.9 0-3.2-0.6c-4.9-14.3-3.1-29.8 0.7-44.7 6.2 3.7 4.3 13.7 3.1 19.9-1.3 7.4 3.1 18-0.6 25.4zm-18.1-13.6c-3.7 0-16.1-11.8-20.4-19.9-4.4-8.7-13.1-24.2-16.2-27.9-2.5-3.8-4.3-12.5-7.4-14.9-3.1-2.5-16.2-18.7-12.4-20.5 3.7-1.9 17.3 11.8 19.2 15.5 1.9 3.7 14.9 22.3 18.6 26.7 3.1 5 13.1 20.5 15.5 25.5 2.5 4.3 6.9 15.5 3.1 15.5z"/></svg>