<svg version="1.2" xmlns="http://www.w3.org/2000/svg" viewBox="0 0 1537 1537" width="1537" height="1537"><style>.a{fill:#e30613}</style><path fill-rule="evenodd" class="a" d="m135.5 432.5c85.7-32.3 1103.8-412.2 1122.4-417.2 32.3-11.1 53.4-14.9 78.3-14.9 53.4-1.2 103 18.7 141.5 57.2 38.5 37.2 58.4 88.1 58.4 141.5 0 26.1-10 62.1-14.9 77-8.7 27.3-403.6 1110-408.5 1124.9-33.5 89.4-100.6 134.1-177.6 135.3q-32.2 0-63.3-11.2c-94.4-34.7-149-139-103-253.3 11.1-29.8 327.7-830.6 327.7-830.6 0 0-802 322.8-831.8 335.2-120.5 48.5-214.8-8.6-253.3-101.8-7.5-21.1-11.2-42.2-11.2-64.5 0-75.8 47.2-145.3 135.3-177.6z"/></svg>