<svg version="1.2" xmlns="http://www.w3.org/2000/svg" viewBox="0 0 1551 3673" width="1551" height="3673">
	<title>BA</title>
	<style>
		.s0 { fill: #ea0029 } 
		.s1 { fill: #85754e } 
		.s2 { fill: #000f9f } 
	</style>
	<path fill-rule="evenodd" class="s0" d="m1523.5 1915.3c2 6.8 1.4 17 1.4 25.5v44c1.1 67.8 1.7 138.7 1.7 208v158c0.3 10.8 0.6 21.6 1.1 32.1 0.3 36-0.8 70.9-5.1 104.9-14.2 110.4-66.6 207.4-149.8 281.5-29.5 25.8-59.8 47.9-92.8 66.6-10.5 4.6-20.7 10.5-31.2 15.9-1.1 0.6-2 0.6-3.7 0.6h-3.9c-17.3-10.8-34.1-21.9-51.4-32.4-35.5-20.7-77.7-36.8-119.7-42.8-20.7-3.4-44.6-6.5-67-3.4-134.2 17.9-270.4 121.7-331.9 241.7-18.8 36.6-33.5 73.2-41.2 115.5-5.7 29.8-5.7 67.5-2.5 99 11.3 116 53 211.4 133.3 291.4 42.6 43.1 86.8 77.1 134.5 109.5 17.3 10.5 34.9 21.8 52.5 32.3 1.7 1.7 3.1 1.7 3.1 4h1.4v1.4c-70.6-2.5-151.2-43.4-204.5-81.4-39.5-26.7-76.9-53.1-112.4-89.1-19.6-19.6-35.5-42-50.2-63.8-17.3-25.6-35.5-51.1-48.2-78.1-37.2-77.1-58.5-175-52.3-273.2 4.3-58.7 17.1-112.9 35.2-163.9 10.5-29 26.4-55.1 42-80 78.9-130.3 217.9-212 338.2-294 77.5-52.5 155.2-105.2 233-158.3 74.3-50.2 148.6-99.8 212.8-167.4 58.1-62.4 100.1-135.6 134.5-210.2 15.3-30.9 31.2-61.6 43.1-93.9z"/>
	<path fill-rule="evenodd" class="s1" d="m1533.1 1534.6c3.7 9.3 2 21.8 2 32.6v69.8c0 44.5 1.7 91.6-4.2 133.3-11.7 95.6-58.5 176.5-105.9 254.2-15.9 26.4-34.6 51.1-51.6 76.3-15.1 22.5-32.1 45.7-51.4 66.2-31.7 32.3-65.8 62.4-101.3 88.8-56.1 41.9-110 82.8-169.1 118.8-60.1 36.6-117.4 77.5-175.3 116.9-124 83.4-251.4 179.3-337.6 307-24.4 36.3-41.8 76.6-56.8 117.2-24.4 63.2-37.7 138.7-32.9 215.6 4.3 70.6 25.5 134.4 51.1 194 16.1 38.6 35.4 76.9 60.1 111.2 28.1 41.5 66.4 79.8 105.6 113.5 40.3 34.3 80.5 66.1 123.7 94.5 5.6 4 22.1 17.3 28.1 17.3q0 0.9 0 1.7c-78.3-7.1-151-52.5-209.4-101-144.2-119.4-239.8-282.6-248.6-474.4-3.4-66.9 0.6-131.9 21.9-188.3 87.6-228.7 301.6-404.9 495.1-550.4 68.1-51.7 135-103 202.8-154.4 43.5-33.2 87.7-66.3 131.1-99.5 12.8-13.1 26.4-26.1 39.2-38.6 69.8-70.1 131.3-144.2 180.7-226.4 14.5-22.7 29-46.3 41.4-70.7 21.6-44.5 37.8-92.7 47.4-142.7 4.6-27.8 12.5-54.4 13.9-82.5z"/>
	<path fill-rule="evenodd" class="s2" d="m1511.8 0.3c13.4 0 25.9-0.3 33 10.5 8.8 12.7 5.1 48.2 5.1 65.8 0 77.5-2.3 154.1-2.3 232.6 0 22.7-1.1 44.6-1.1 67 0 192.9-1.7 383-1.7 577.1v167.1c0.8 61 3.9 123.1 2.8 184.9-2.3 167.4-54.5 310.1-127.1 442.3-27 49.1-50.2 100.2-89.1 144.4-27.8 31.5-55.9 63-86.8 92-60.2 56.4-123.7 106.3-188.1 156.3-66.1 55-132.5 110.6-198.9 166-46.9 35.1-94.2 70.6-138.8 110.3-28.1 24.7-56.4 51.9-84 77.5-30 27.5-55.9 58.4-84.5 86.8-82.6 85.7-156.1 182.4-191.2 292.8-12.2 38-21.3 75.4-26.7 117.4-4.8 36-1.4 76.3 0.5 112.4 12 185.2 97.7 349.5 242.1 461.8 45.4 35.2 92.2 66.1 143.3 89.4 10.5 4.5 29.5 15.9 40.5 15.9 0 0.3 0 0.8 0 1.4-172.8-21.5-328.8-82.5-461.9-182.7-25.2-18.7-48.2-41.7-70.9-63.5-165.1-164.6-245.4-399.5-221.6-652.9 11.1-117.7 38.6-227.5 84.8-327.9 78.6-170 206.3-306.4 349.9-436.6 31.2-26.4 62.7-52.2 94.4-78.6 53.4-42.9 105.9-87.4 158.9-133.1 24.4-21.5 49.1-42.8 73.8-63.8 72.1-68.1 146.7-133.4 212.5-208.3 79.5-90.5 156.4-182.1 222.7-279.7 39.2-58.4 75.2-119.4 111.6-178.7 27.8-46.6 51.3-95.9 72.6-145.9 77.7-177.6 127.7-383.2 134.2-595.5 2-66.9-2.8-130.5-11.1-191.2-4.5-21.3-8.2-42-12.2-63.8-3.1-14.5-7.1-30.6-5.4-46.5 1.7-12.5 11.4-18.2 20.7-23z"/>
</svg>