<svg width="44" height="44" viewBox="0 0 44 44" fill="none" xmlns="http://www.w3.org/2000/svg">
<g filter="url(#filter0_d_690_9215)">
<mask id="mask0_690_9215" style="mask-type:alpha" maskUnits="userSpaceOnUse" x="3" y="3" width="36" height="36">
<path fill-rule="evenodd" clip-rule="evenodd" d="M3 3.09863H38.9003V38.8221H3V3.09863Z" fill="white"/>
</mask>
<g mask="url(#mask0_690_9215)">
<path fill-rule="evenodd" clip-rule="evenodd" d="M38.9003 20.9608C38.9003 30.8245 30.8626 38.8221 20.9501 38.8221C11.0361 38.8221 3 30.8245 3 20.9608C3 11.0966 11.0361 3.09863 20.9501 3.09863C30.8626 3.09863 38.9003 11.0966 38.9003 20.9608Z" fill="white"/>
</g>
<path fill-rule="evenodd" clip-rule="evenodd" d="M20.7546 32.2429C27.1793 32.2429 32.3874 27.0604 32.3874 20.668C32.3874 14.275 27.1793 9.09277 20.7546 9.09277C14.3302 9.09277 9.12207 14.275 9.12207 20.668C9.12207 27.0604 14.3302 32.2429 20.7546 32.2429Z" fill="#FFE900"/>
<path fill-rule="evenodd" clip-rule="evenodd" d="M31.9596 20.3595L33.0476 20.0495L33.8916 23.7138L35.5626 23.3087L35.5067 22.2868L35.043 22.4025L34.4219 19.7056L35.5717 19.4102L35.2611 18.0623L34.1116 18.3579L33.7734 16.8906L32.5232 17.7719L32.737 18.7015L31.6533 18.9952L31.9464 20.3463" fill="#1F201E"/>
<path fill-rule="evenodd" clip-rule="evenodd" d="M31.6526 19.1366C31.2191 18.6763 30.5906 18.3617 29.7603 18.3617C27.9857 18.3617 27.1334 19.7992 27.1334 21.0194V21.0286C27.1334 22.2579 27.9857 23.6953 29.7603 23.6953C31.5353 23.6953 32.3877 22.2579 32.3877 21.0286C32.3877 20.5109 32.2364 19.9574 31.9292 19.4889L31.6526 19.1366ZM30.9291 21.0286C30.9291 21.7608 30.393 22.294 29.7603 22.294C29.1278 22.294 28.592 21.7608 28.592 21.0374V21.0286C28.592 20.2963 29.1278 19.7628 29.7603 19.7628C30.393 19.7628 30.9291 20.2963 30.9291 21.0286ZM27.1086 21.0286C27.1086 19.7992 26.2559 18.3617 24.4812 18.3617C22.7065 18.3617 21.8538 19.7992 21.8538 21.0194V21.0286C21.8538 22.2579 22.7065 23.6953 24.4812 23.6953C26.2559 23.6953 27.1086 22.2579 27.1086 21.0286ZM25.6499 21.0286C25.6499 21.7608 25.1137 22.294 24.4812 22.294C23.8486 22.294 23.3128 21.7608 23.3128 21.0374V21.0286C23.3128 20.2963 23.8486 19.7628 24.4812 19.7628C25.1137 19.7628 25.6499 20.2963 25.6499 21.0286ZM20.3878 20.4591H21.8638C21.6182 19.2296 20.5722 18.3525 19.2808 18.3525C17.8219 18.3525 16.7062 19.5459 16.7062 21.0194C16.7062 22.5111 17.8396 23.7044 19.316 23.7044C20.6339 23.7044 21.6094 22.7733 21.8726 21.6342H20.3878C20.2296 21.9416 19.9395 22.3032 19.3336 22.3032C18.6392 22.3032 18.1737 21.7608 18.1737 21.0286C18.1737 20.6668 18.2879 20.3413 18.4899 20.1063C18.7009 19.8716 18.9906 19.7358 19.3336 19.7537C19.9395 19.7537 20.2296 20.1155 20.3878 20.4591ZM15.1858 19.9345H16.6182C16.495 18.615 15.3879 18.3525 14.7466 18.3525C13.736 18.3525 12.8575 19.0125 12.8575 20.0522C12.8575 20.7301 13.3847 21.155 14.0171 21.3629C14.9486 21.7337 15.3089 21.7791 15.3089 22.1225C15.3089 22.3666 15.0453 22.5111 14.7991 22.5111C14.7378 22.5111 14.3071 22.5111 14.2455 22.0499H12.7959C12.9277 23.3699 14.0435 23.7136 14.7816 23.7136C15.8625 23.7136 16.7674 23.0624 16.7674 21.9596C16.7674 20.8747 15.8889 20.6219 15.0629 20.3866C14.6762 20.2691 14.3159 20.1155 14.3159 19.8892C14.3159 19.7537 14.4213 19.555 14.729 19.555C15.1594 19.555 15.177 19.8262 15.1858 19.9345Z" fill="#1F201E"/>
</g>
<defs>
<filter id="filter0_d_690_9215" x="0" y="0" width="44" height="44" filterUnits="userSpaceOnUse" color-interpolation-filters="sRGB">
<feFlood flood-opacity="0" result="BackgroundImageFix"/>
<feColorMatrix in="SourceAlpha" type="matrix" values="0 0 0 0 0 0 0 0 0 0 0 0 0 0 0 0 0 0 127 0" result="hardAlpha"/>
<feOffset dx="1" dy="1"/>
<feGaussianBlur stdDeviation="2"/>
<feComposite in2="hardAlpha" operator="out"/>
<feColorMatrix type="matrix" values="0 0 0 0 0 0 0 0 0 0 0 0 0 0 0 0 0 0 0.1 0"/>
<feBlend mode="normal" in2="BackgroundImageFix" result="effect1_dropShadow_690_9215"/>
<feBlend mode="normal" in="SourceGraphic" in2="effect1_dropShadow_690_9215" result="shape"/>
</filter>
</defs>
</svg>
