<svg width="74" height="46" viewBox="0 0 74 46" fill="none" xmlns="http://www.w3.org/2000/svg">
<g clip-path="url(#clip0_709_65)">
<path d="M31.0605 25.1198H34.4962V26.1051H31.7652L31.4118 27.0882H31.943L31.791 32.1242C31.671 32.59 33.0611 31.5489 33.1554 31.5768L33.1489 31.3965C40.86 30.0506 40.2988 36.7566 40.0096 27.0839L40.3587 26.1072H38.0369L38.0304 25.1219H40.4337L40.7871 24.1388H31.414L31.0627 25.1219L31.0605 25.1198ZM33.0054 27.0882H34.4962V27.6893C33.9907 27.6936 33.3417 27.8718 33.044 28.271L33.0054 27.0882ZM35.6465 25.1198H36.8802L36.8845 26.1051H35.6486V25.1198H35.6465ZM35.6465 27.0882H36.8888L36.8952 28.6317C36.5311 28.314 36.1027 28.0542 35.6465 27.8868V27.0882ZM35.6165 28.6488C36.2655 29.1447 36.4326 29.3679 36.8952 30.0742C37.2829 29.9647 37.8591 29.7973 38.0626 29.7415L38.0433 27.0882H38.8015V30.7804C37.0923 30.3296 35.2995 30.3189 33.1275 30.8148L33.0933 29.7436C34.1043 30.8126 35.4708 29.896 35.6143 28.6488M34.1342 29.6298C32.742 29.9218 33.3653 28.1186 34.4855 28.3848C34.5219 28.7776 34.5776 29.4452 34.1342 29.6298ZM52.3579 31.4309C52.1566 30.8019 51.4326 30.7439 51.0085 30.6538L50.7536 29.3808C51.4583 29.003 51.7004 27.934 51.7882 27.1076H50.6015C50.5737 27.2922 50.5416 27.846 50.4794 28.0177L50.2053 26.6482H51.8824L51.5868 25.3645H50.3274L50.4002 25.6436H49.6034V25.1241H51.8824L52.2144 24.1409H49.6034V23.7696L48.4189 23.5656V24.1409H46.4354V23.7696L45.2509 23.5656V24.1409H42.9162L42.5649 25.1241H45.2509V25.6436C43.4624 25.4182 43.698 26.7147 43.7366 28.0564H43.4539V26.8693H42.4364C42.445 27.2664 42.4557 28.6767 42.3058 28.9451L43.7516 28.9322L43.7602 29.4839C43.049 29.6041 42.2758 29.0374 42.415 30.3575C42.475 30.4327 42.2694 33.7535 42.6742 32.399L43.2654 30.4692H43.7773L43.8223 33.0279C43.8415 33.6977 43.9722 33.6784 44.0836 33.0108L44.8718 27.9061H45.4651C44.9189 29.0095 44.9339 30.4498 44.8975 31.6562H48.6202L48.6566 30.6366H47.4936L47.5964 30.2931C48.9929 30.2266 49.7769 28.3676 47.9755 28.3354L48.1297 27.9061H48.8409L48.6931 26.9788H45.0368C45.1331 26.309 48.541 26.7791 48.9822 26.646L49.507 29.3035C48.7016 29.9905 48.9779 31.4609 49.0079 32.4741C49.0251 33.0279 49.0615 33.8651 49.2285 32.8455C49.3978 31.9976 49.3892 31.0466 49.6998 30.2803C50.0446 31.8323 49.6184 31.7078 51.2463 31.7292C52.3087 31.594 52.615 33.5689 52.5786 32.6201C52.5229 32.253 52.4672 31.7872 52.3558 31.433M47.8941 28.9086C48.2839 29.4109 47.0416 30.0785 46.7824 29.7071C46.5083 29.2821 47.5792 28.5007 47.8941 28.9086ZM46.7139 27.9061H47.0545L46.9774 28.417C46.6711 28.4857 46.3862 28.6016 46.172 28.7605C46.3155 28.4363 46.4933 28.1336 46.7139 27.904M45.84 29.7243C45.9749 30.0613 46.3305 30.2481 46.7632 30.3103L46.731 30.6345H45.6515C45.6515 30.6345 45.705 30.2352 45.84 29.7243ZM48.4125 25.6414H46.429V25.1219H48.4125V25.6414ZM55.3352 25.3623C55.3417 25.1692 55.3502 24.9824 55.3588 24.8085C55.3588 24.8085 56.4148 24.8987 57.2651 24.7913L57.4879 23.5635C56.8753 23.8254 55.9136 23.8812 55.0611 23.9348L54.32 24.6561L54.26 27.6807H53.4867L53.8423 28.666H54.2407L54.1529 32.97C54.2578 33.6977 54.2536 31.8087 55.0418 31.4888C55.7872 30.7311 55.1617 29.6298 55.3224 28.666H57.5157L57.5243 30.6538C53.8273 30.6924 57.5693 30.9393 58.304 31.9353C58.561 32.1564 58.7645 32.4934 58.7474 32.1736C58.7773 31.4502 58.214 25.8561 58.8223 25.3623H55.3374H55.3352ZM56.8068 27.6807L56.9139 26.6825H55.95L55.9864 27.6807H55.3117C55.3095 27.217 55.3095 26.7705 55.316 26.3476H57.5072L57.5115 27.6807H56.8046H56.8068ZM63.4511 24.1388H61.4162V23.7674L60.2467 23.5635V24.1388H58.6553L58.3211 25.1219H63.0998L63.4511 24.1388ZM64.1172 31.4716C63.9352 30.6924 63.526 30.6559 62.5986 30.5078C62.6072 29.7629 62.2837 26.3584 62.7828 25.753H59.2057L59.3 32.5471C59.3193 33.1009 59.4863 32.1392 59.7434 31.5425C59.9854 31.0037 60.4095 30.8191 60.4095 29.9647L60.4652 26.7362H61.2834L61.3006 31.6713C62.8021 31.5403 63.7081 31.2827 64.0808 32.3217C64.4171 33.3478 64.1515 31.6412 64.1151 31.4673M56.7618 28.9257H55.965L55.9114 30.1493H56.8732L56.7618 28.9257ZM73.9316 32.897C74.0537 30.1515 71.9203 30.5443 69.8169 30.5078C69.8512 29.9776 69.9048 29.4452 70.0376 28.9601H72.5436L72.9699 27.904H66.2099L65.8029 28.9601H68.5018L68.4718 30.525C67.6107 30.5443 66.7068 30.5808 65.7258 30.6345L65.2096 32.1371C67.7435 31.7056 71.9825 30.935 73.4518 32.5256C73.5247 32.6008 73.9937 33.4294 73.9316 32.8991M71.025 25.5276L69.4892 26.2704C70.361 27.29 70.6373 27.6099 72.8414 27.275C73.2655 27.217 73.137 27.0496 72.8949 27.0346C71.5262 26.9401 71.3977 26.4378 71.0271 25.5276M68.082 27.1827L69.1379 26.1974C68.1805 25.4589 67.4908 25.3495 66.3963 26.1781V25.1198H71.8411C72.2866 25.1198 72.323 25.0854 72.323 25.4203L72.3016 26.5666L73.711 26.6417C73.711 25.9076 73.5654 24.8493 73.8974 24.1345H70.0119C69.8919 23.8812 69.8619 23.645 69.8619 23.645H68.249C68.2983 23.8103 68.3883 23.9735 68.5039 24.1345H65.9143L65.0447 25.064L64.989 27.7537C65.8351 27.275 67.2787 26.1695 68.082 27.1805" fill="#040000"/>
<path fill-rule="evenodd" clip-rule="evenodd" d="M73.2721 36.2031L73.0986 36.6153C74.1332 37.7058 73.2743 40.0907 73.692 41.7908C73.9747 41.5826 73.5549 36.3663 73.9426 36.2031H73.2721Z" fill="#040000"/>
<path fill-rule="evenodd" clip-rule="evenodd" d="M34.9497 36.1924L34.7334 36.5938H35.406C35.0183 37.0897 34.7762 37.6263 34.7462 38.2403C37.1174 37.2786 37.2138 40.2559 37.6957 41.6749C37.4644 40.2323 37.4494 37.0382 35.1468 37.695C35.5024 36.5101 36.5519 36.5294 37.5672 36.5938L37.7428 36.1924H34.9476H34.9497Z" fill="#040000"/>
<path fill-rule="evenodd" clip-rule="evenodd" d="M38.1926 36.1772L38.0234 36.6645C38.1841 36.6624 38.4732 36.6216 38.3404 36.8813C38.5054 36.7826 38.636 36.5486 38.7367 36.1772H38.1926Z" fill="#040000"/>
<path fill-rule="evenodd" clip-rule="evenodd" d="M43.0597 36.1924L42.8584 36.5938H43.3489C43.109 36.9673 42.9933 37.5576 42.9998 38.3669C44.1243 37.9505 44.9018 38.5386 45.8143 39.1977C45.388 38.2488 44.2592 37.5469 43.2161 37.8217C43.3168 37.2292 43.5438 36.8213 43.893 36.5938H45.583L45.7822 36.1924H43.0619H43.0597Z" fill="#040000"/>
<path fill-rule="evenodd" clip-rule="evenodd" d="M46.6748 36.1924L46.4863 36.5938H47.0197C46.7519 36.9416 46.5763 37.3881 46.4863 37.9376C47.1182 37.8431 47.5423 38.3004 48.0071 38.5773C47.9279 37.9805 47.3324 37.5512 46.7733 37.4439C46.8912 37.1777 47.0818 36.9523 47.3217 36.772C48.1035 37.1627 48.7097 38.6631 49.3051 39.0367V36.5959L49.4379 36.1945H48.9046L48.7289 36.5959C48.9945 36.6453 49.1359 37.3537 49.1509 38.719C48.7761 37.9183 48.382 37.2034 47.8507 36.5959H48.3991L48.5747 36.1945H46.6727L46.6748 36.1924Z" fill="#040000"/>
<path fill-rule="evenodd" clip-rule="evenodd" d="M49.9114 36.1772L49.7422 36.6645C49.9028 36.6624 50.1899 36.6216 50.0592 36.8813C50.222 36.7826 50.3548 36.5486 50.4555 36.1772H49.9135H49.9114Z" fill="#040000"/>
<path fill-rule="evenodd" clip-rule="evenodd" d="M51.6507 37.4567C52.0341 37.4567 52.2612 37.577 52.5439 37.8646C51.9656 39.0216 50.0121 37.783 51.6507 37.4567ZM51.0467 36.1924L50.8989 36.5938H51.9763C52.1198 36.7441 52.1819 36.9308 52.214 37.139C49.6373 36.5358 51.3722 40.4148 52.6531 37.9848C53.0644 38.2982 53.4735 39.1869 53.8205 39.2857C53.8526 38.9701 53.6963 36.3791 54.0111 36.1945H53.4671L53.2593 36.5959C53.5228 36.6174 53.6598 37.4031 53.6663 38.9529C53.0387 37.9011 52.5974 37.3172 52.3383 37.2013C52.3982 37.0102 52.4218 36.8128 52.4132 36.5938H52.8502L53.0044 36.1924H51.0488H51.0467Z" fill="#040000"/>
<path fill-rule="evenodd" clip-rule="evenodd" d="M56.9176 36.5935C57.166 36.8597 57.3074 37.4801 57.3353 38.4568C56.8298 37.8192 56.3435 37.4972 55.8766 37.4886C56.0008 37.1473 56.185 36.8554 56.4421 36.5935H56.9176ZM55.2426 36.1921C54.7928 36.3102 54.57 36.8253 54.57 37.7377C54.6321 37.7441 54.4094 40.73 54.7242 40.1268C54.812 38.9355 54.3194 36.1985 56.0972 36.5914C55.8038 37.0057 55.6667 37.4779 55.5896 38.0103C56.3735 37.875 56.9154 38.3087 57.4766 38.8582C57.5794 37.9373 57.271 37.0014 57.5516 36.1899H55.2426V36.1921Z" fill="#040000"/>
<path fill-rule="evenodd" clip-rule="evenodd" d="M59.2546 36.1921C58.2607 36.6558 57.9052 37.7677 58.4064 38.6972C58.567 38.5705 58.6741 38.4138 58.7384 38.2228C58.1836 37.2439 59.0061 36.3531 60.0064 36.5914C60.4819 36.9241 60.5269 37.4178 60.2806 37.8772C59.8415 37.6411 59.1775 37.8257 59.1603 38.3645C60.1349 37.9201 60.7561 38.6607 61.1352 39.4507C61.2209 38.8668 60.7475 38.2271 60.4284 37.9824C60.7625 37.4801 60.8482 37.1044 60.6276 36.5914L60.8589 36.1899H59.2567L59.2546 36.1921Z" fill="#040000"/>
<path fill-rule="evenodd" clip-rule="evenodd" d="M61.6302 36.1772L61.4609 36.6645C61.6216 36.6645 61.9086 36.6216 61.7779 36.8813C61.9407 36.7826 62.0735 36.5486 62.1742 36.1772H61.6302Z" fill="#040000"/>
<path fill-rule="evenodd" clip-rule="evenodd" d="M63.693 36.1921C62.6992 36.6558 62.3415 37.7677 62.8448 38.6972C63.0055 38.5705 63.1104 38.4117 63.1768 38.2228C62.6199 37.2439 63.4446 36.3531 64.4449 36.5914C64.9204 36.9262 64.9653 37.4178 64.719 37.8772C64.2821 37.6411 63.6159 37.8257 63.5988 38.3645C64.5734 37.9201 65.1945 38.6607 65.5737 39.4507C65.6593 38.8668 65.186 38.2271 64.8668 37.9824C65.201 37.4779 65.2866 37.1044 65.066 36.5914L65.2952 36.1899H63.693V36.1921Z" fill="#040000"/>
<path fill-rule="evenodd" clip-rule="evenodd" d="M66.2337 39.4916C65.8568 39.4938 66.7007 40.0455 66.8528 40.2601C67.4418 40.7903 68.2536 41.7928 68.9926 41.2562C69.7573 40.6036 68.4271 39.4831 68.3479 40.6852C69.6909 40.0476 69.0932 42.469 66.2337 39.4895M67.5168 36.5894C67.6946 36.8663 67.7759 37.3815 67.7631 38.135C67.4225 37.755 67.037 37.506 66.5508 37.4159C66.6921 37.111 66.9235 36.8341 67.2426 36.5894H67.5168ZM69.1918 36.188H66.4244L66.2916 36.5894H66.7992C66.5229 37.0016 66.3494 37.4202 66.2766 37.8452C66.9042 37.8044 67.4204 38.0835 67.9088 38.4806C67.9387 37.8387 67.9473 37.2205 67.8895 36.5894H68.4806C68.8105 36.4735 68.8448 37.594 68.9026 39.687C68.2493 39.3113 66.5786 37.9461 66.2916 39.2856C69.8108 38.9099 68.9412 42.059 69.0568 36.6023L69.1896 36.188H69.1918Z" fill="#040000"/>
<path fill-rule="evenodd" clip-rule="evenodd" d="M72.8239 36.1924H72.3291L72.2177 36.5938C72.6483 37.0382 72.4876 37.783 72.5497 38.442C72.2177 38.0449 71.8836 37.7079 71.4659 37.504C71.5709 37.2013 71.6715 36.8514 71.4809 36.5788L71.6137 36.1924H70.4571C69.8616 36.6775 69.5382 37.4138 69.8659 38.0771L70.2536 37.8066C69.9901 37.4009 69.9858 36.8943 70.4228 36.5938H71.0739C71.3995 36.8235 71.3952 37.0424 71.3374 37.4567C70.9818 37.3473 70.5556 37.4846 70.5834 37.9075C71.3524 37.6392 71.8343 37.9569 72.5605 38.6696C72.6161 38.7469 72.7147 38.7254 72.7147 38.6331V36.6217L72.8196 36.1924H72.8239Z" fill="#040000"/>
<path fill-rule="evenodd" clip-rule="evenodd" d="M32.5212 36.1922C32.4826 36.072 32.4333 35.9518 32.3734 35.8466C32.8939 35.209 34.2904 36.0398 34.1448 34.4556C33.937 35.5418 32.6583 34.7003 32.2877 35.6834C32.0499 35.1597 31.3302 34.6595 31.0625 35.4237C31.6001 35.4301 32.0328 35.6856 32.3605 36.1922H31.4523L31.2617 36.5936H31.6987C31.4352 36.9886 31.2917 37.4608 31.2617 38.0125C33.8449 37.4802 33.982 41.2453 33.8727 36.5936L34.0891 36.1922H32.5233H32.5212ZM33.3265 36.5936C33.7014 36.8469 33.7485 38.0898 33.7078 38.7316C33.1402 37.9438 32.5233 37.4587 31.5037 37.5338C31.6215 37.1303 31.87 36.8276 32.2234 36.5958H33.3265V36.5936Z" fill="#040000"/>
<path fill-rule="evenodd" clip-rule="evenodd" d="M40.7568 35.752C41.6008 35.7005 42.4897 35.6168 42.3376 34.5649C42.0656 35.6898 40.8275 34.8032 40.4677 35.8014C40.1807 35.2111 39.5316 34.8032 39.2425 35.5417C39.7373 35.5481 40.1442 35.7649 40.4612 36.1921H39.8315C39.3389 36.6536 38.8655 37.1774 39.1525 37.8493L39.5424 37.5316C39.3346 37.2418 39.4824 36.7931 39.7737 36.5935H40.5555C40.7204 36.7717 40.7568 36.9219 40.6969 37.1387C40.3542 37.0658 39.9258 37.2482 39.9665 37.6046C40.6069 37.4071 41.2987 37.6561 41.8042 38.109H39.9515L39.8187 38.5126H40.1207C39.9022 38.9784 39.8187 39.47 39.8615 39.9787C40.8489 39.7426 41.3502 39.998 42.1191 40.6871C41.7828 39.6846 40.9817 39.382 40.035 39.5065C40.0479 39.4099 40.065 39.309 40.0928 39.2253H41.725L41.8814 38.8174H40.2278C40.2877 38.3129 41.5665 38.5727 41.8557 38.5147C41.8814 38.4289 41.9563 38.1927 41.982 38.1112L41.9435 38.2357C42.329 38.6414 42.0077 36.3252 42.2262 36.1942H41.665L41.5536 36.6085C41.8 36.703 41.9392 37.1838 41.967 38.0575C41.6479 37.6775 41.2945 37.377 40.8746 37.1881C40.9582 36.9928 40.9796 36.7631 40.8746 36.5806L40.986 36.1942H40.6669C40.6347 36.1127 40.5962 36.0354 40.5576 35.9581C40.6026 35.8658 40.669 35.7971 40.7568 35.7542" fill="#040000"/>
<path d="M46.388 42.7003H45.981C45.9981 42.7346 46.0153 42.784 46.0153 42.8484V45.0422L44.5352 42.9321C44.3553 42.5607 43.6998 42.741 43.3828 42.7003C43.4428 42.7861 43.4342 45.6519 43.3828 45.7291H43.7898C43.7726 45.6798 43.7577 45.6304 43.7577 45.581V43.3872L45.2827 45.4823C45.4734 45.8472 46.0517 45.6991 46.388 45.7291C46.328 45.6132 46.328 42.814 46.388 42.7003Z" fill="#040000"/>
<path d="M42.9357 45.5981C42.9186 45.5037 41.6013 42.8011 41.6356 42.7002H40.7274C40.9908 42.8354 39.4979 45.6368 39.4443 45.7312H39.8984C39.847 45.6454 40.2454 44.937 40.2711 44.8468H41.5713C41.6056 44.9413 41.9761 45.6432 41.9611 45.7312H43.0342C42.9828 45.6819 42.9507 45.6325 42.9357 45.5981ZM40.4039 44.5527L40.9544 43.3871L41.4406 44.5527H40.4018H40.4039Z" fill="#040000"/>
<path d="M35.7834 42.7002H34.873C34.933 42.844 34.9223 45.5981 34.873 45.7355H35.7834C35.7255 45.5938 35.7277 42.844 35.7834 42.7002Z" fill="#040000"/>
<path d="M73.7646 44.2973C73.3898 43.971 72.79 43.9045 72.3638 43.6254C71.6334 42.8419 73.3041 42.8569 73.6661 43.1983L73.7946 42.8548C73.122 42.6079 72.0361 42.6058 71.5991 43.0673C70.8709 44.044 72.2695 44.4497 72.9657 44.7224C73.9017 45.5746 71.9761 45.7119 71.5177 45.1968L71.3721 45.5746C72.3381 46.1563 74.7563 45.6926 73.7625 44.2952" fill="#040000"/>
<path d="M67.8612 42.739H67.4521C67.4692 42.7734 67.4863 42.8227 67.4863 42.8871V45.0831L66.0041 42.9687C65.8221 42.5974 65.1666 42.7777 64.8496 42.7369C64.9096 42.8227 64.9032 45.6928 64.8496 45.7722H65.2566C65.2394 45.7228 65.2245 45.6713 65.2245 45.6241V43.426L66.7517 45.5253C66.9423 45.8903 67.5228 45.7443 67.859 45.7722C67.7991 45.6563 67.7991 42.8528 67.859 42.7369" fill="#040000"/>
<path d="M64.0871 42.7393H63.1768C63.2067 42.8895 63.2025 45.6308 63.1768 45.7746H64.0871C64.0293 45.6329 64.0314 42.8852 64.0871 42.7393Z" fill="#040000"/>
<path d="M56.3117 42.7393H55.4014C55.4335 42.8874 55.4292 45.6308 55.4014 45.7746H56.3117C56.256 45.6308 56.2581 42.8852 56.3117 42.7393Z" fill="#040000"/>
<path d="M54.8982 45.6434C54.8789 45.549 53.5638 42.8421 53.5959 42.7412H52.6856C52.9512 42.8743 51.4539 45.6821 51.4004 45.7765H51.8566C51.8052 45.6907 52.2058 44.9801 52.2315 44.89H53.5316C53.5659 44.9823 53.9386 45.6885 53.9236 45.7765H54.9989C54.9475 45.7272 54.9153 45.6756 54.9003 45.6456L54.8982 45.6434ZM52.36 44.5959L52.9126 43.4303L53.401 44.5959H52.3621H52.36Z" fill="#040000"/>
<path d="M59.8412 45.3366L59.2351 44.3621C59.5885 44.2827 60.0062 44.0809 60.0062 43.5592C59.8541 42.2412 57.8 42.8659 57.0781 42.7242C57.136 42.8852 57.1295 45.6157 57.0781 45.7746H57.9885C57.9713 45.7402 57.9713 45.6908 57.9713 45.6264V43.0033C59.34 42.7521 59.5157 44.2376 58.1834 44.2161H58.1662C58.8666 45.3066 58.7467 45.9592 60.2803 45.7724C60.1175 45.6737 60.0062 45.5771 59.8412 45.3345" fill="#040000"/>
<path d="M61.536 45.4803V42.8893C61.536 42.8228 61.536 42.7734 61.5488 42.7412H60.6406C60.7027 42.8958 60.6963 45.622 60.6406 45.7765C61.1097 45.6778 62.502 46.0513 62.7547 45.4502C62.4634 45.4975 61.8358 45.4803 61.536 45.4825V45.4803Z" fill="#040000"/>
<path d="M69.5042 45.4803V44.3319C69.667 44.3404 70.6715 44.3125 70.8043 44.349V44.0034C70.6715 44.0678 69.667 44.0292 69.5042 44.0378V43.0353C69.6498 43.0439 70.6865 43.016 70.8043 43.0546V42.7412H68.626C68.686 42.8271 68.6795 45.6971 68.626 45.7765C69.1079 45.6671 70.8236 46.0728 71.0828 45.4502C70.7701 45.5018 69.834 45.4782 69.5063 45.4825L69.5042 45.4803Z" fill="#040000"/>
<path d="M39.453 42.6768C39.3394 42.797 36.8205 42.7068 36.6256 42.7347L36.4949 43.0739C36.5549 42.9902 38.2428 43.0438 38.2985 43.0267C38.1742 43.1426 36.3086 45.7915 36.1758 45.7314C36.7648 45.6262 39.0696 46.0233 39.2559 45.4051C38.9196 45.4631 37.99 45.4201 37.6409 45.4438C37.9279 44.9457 39.4401 43.0846 39.4508 42.6789L39.453 42.6768Z" fill="#040000"/>
<path d="M50.0484 44.2997C49.8728 44.2911 49.1681 44.3254 49.0075 44.2653V44.6109C49.0075 44.6109 49.121 44.5895 49.1938 44.5959C49.1917 44.8363 49.1938 45.242 49.1938 45.4202C46.5335 46.3132 48.1057 40.8479 49.7143 43.7308L49.9049 43.7244L49.9092 42.8206C45.2376 41.6937 46.48 47.4724 50.057 45.3107L50.0506 44.598C50.0998 44.5873 50.2541 44.6088 50.2369 44.6109V44.2653C50.1534 44.2889 50.0977 44.2975 50.0506 44.2997H50.0484Z" fill="#040000"/>
<path d="M34.3654 45.5834L33.1273 44.0078C33.1809 43.9456 34.1962 42.6941 34.224 42.7091H33.5664C33.6286 42.7993 32.9024 43.5871 32.8617 43.6601C32.8189 43.5806 32.142 42.8014 32.1977 42.7091H31.0625C31.1332 42.7199 32.2513 44.216 32.3327 44.3041L31.3495 45.5019H31.3538C31.296 45.5792 31.1717 45.7251 31.0754 45.753C31.1503 45.753 31.6772 45.753 31.7651 45.753C31.7522 45.6586 31.8486 45.5727 31.8979 45.5019H31.9021L32.6004 44.6497C32.654 44.7441 33.4486 45.6521 33.4122 45.753H34.5153C34.5153 45.753 34.3804 45.6114 34.3675 45.5813L34.3654 45.5834Z" fill="#040000"/>
<path d="M39.1294 -0.000101284C35.1497 5.41368 29.692 8.17424 17.0288 14.4123C7.02377 19.3431 -0.550156 26.4055 0.0324536 34.2622C0.647193 42.5739 8.97294 45.2078 15.5808 45.7745C17.6564 45.9677 19.1943 45.987 19.1965 45.987C20.276 46.0407 21.9724 45.9012 22.3344 45.8732C23.0991 45.8153 23.5318 45.738 23.8745 45.5942C15.4202 45.0189 11.8067 42.9173 10.0782 40.7149C8.44174 38.6305 8.73304 36.6428 9.70549 35.1079C10.6415 33.6311 12.0038 32.4182 16.1185 30.8426C19.1836 29.6705 26.0935 27.7879 27.3294 27.5218C24.5813 27.1483 23.7995 26.5279 23.4354 26.1436C22.6129 25.2785 22.5936 23.3595 24.1229 21.3008C25.5281 19.2251 28.3576 16.4967 31.1485 14.4939C36.2614 10.8253 39.078 6.76391 39.1294 -0.00439453V-0.000101284Z" fill="white"/>
<path d="M21.6425 45.785C18.6095 45.8816 12.1409 45.375 8.2468 42.3311C6.80741 41.2063 5.70217 39.7487 5.58436 37.5677C5.1731 29.9773 18.9672 26.6779 22.6664 26.2658C22.5893 26.1584 22.2316 25.7184 22.2037 24.5549C22.1952 24.1707 22.2616 23.5739 22.5679 22.6187C12.7663 25.3878 3.13611 30.1533 3.34817 36.0823C3.59877 43.0674 12.1751 45.5746 19.4042 45.8279C20.4666 45.8644 21.6404 45.7807 21.6404 45.7807L21.6425 45.785Z" fill="#6DB328"/>
<path d="M16.131 45.6799C9.7694 45.1604 0.985278 42.4965 0.389816 34.4058C-0.169232 26.8132 7.57391 20.0256 17.0799 15.0476C26.7101 10.0159 34.7167 6.66716 38.54 1.43799C38.0217 9.06709 32.7911 12.6841 29.6767 14.9038C26.5323 17.1448 24.0176 17.7888 19.526 19.5061C12.3033 22.2688 1.37511 27.7255 1.74781 34.6849C2.17192 42.6188 10.4655 44.8921 16.131 45.6799Z" fill="#E10012"/>
<path d="M19.4275 45.8346C19.2305 45.841 17.4077 45.8475 16.2018 45.6929C9.81877 44.8858 2.55329 42.2948 1.77362 35.2474C1.03679 28.5886 10.0908 23.3337 18.2752 20.0021C19.8517 19.3603 21.6873 18.6669 23.1952 18.1389C27.7297 16.5525 29.8653 14.7086 29.9552 14.7193C29.9552 14.7193 26.5217 17.409 24.9473 19.2916C23.9856 20.3284 23.0539 21.3931 22.5698 22.6189C13.4986 25.1304 3.24085 29.9002 3.35224 35.9666C3.45719 41.6594 9.0134 43.7159 11.4381 44.5488C15.1908 45.8003 19.464 45.8303 19.4275 45.8325V45.8346Z" fill="#FFE100"/>
<path d="M9.28149 40.6161C10.9908 42.8507 14.4736 45.1627 22.598 45.7186C22.4566 45.7358 22.296 45.7508 21.919 45.7723C17.151 46.0428 5.35958 44.4671 5.5802 37.0398C5.78583 30.1578 18.087 26.7983 22.6622 26.2681C22.6837 26.2659 23.2984 27.4358 25.3846 27.6784C24.3972 27.7385 18.3569 29.327 15.4139 30.4604C11.4598 31.9824 9.67346 33.8135 8.88523 35.3075C7.54651 37.8405 8.73315 39.8948 9.28363 40.6161H9.28149Z" fill="#005EAE"/>
</g>
<defs>
<clipPath id="clip0_709_65">
<rect width="74" height="46" fill="white"/>
</clipPath>
</defs>
</svg>
